<svg xmlns="http://www.w3.org/2000/svg" viewBox="0 0 760 560" width="760" height="560" font-family="-apple-system,BlinkMacSystemFont,Segoe UI,Helvetica,Arial,sans-serif"><rect width="760" height="560" fill="#ffffff"/><text x="380" y="34" text-anchor="middle" font-size="19" font-weight="600" fill="#0f172a">Proof Verification</text><line x1="78.0" y1="456.0" x2="736.0" y2="456.0" stroke="#e2e8f0" stroke-width="1"/><text x="69.0" y="460.0" text-anchor="end" font-size="12" fill="#475569">2^7</text><line x1="78.0" y1="376.0" x2="736.0" y2="376.0" stroke="#e2e8f0" stroke-width="1"/><text x="69.0" y="380.0" text-anchor="end" font-size="12" fill="#475569">2^8</text><line x1="78.0" y1="296.0" x2="736.0" y2="296.0" stroke="#e2e8f0" stroke-width="1"/><text x="69.0" y="300.0" text-anchor="end" font-size="12" fill="#475569">2^9</text><line x1="78.0" y1="216.0" x2="736.0" y2="216.0" stroke="#e2e8f0" stroke-width="1"/><text x="69.0" y="220.0" text-anchor="end" font-size="12" fill="#475569">2^10</text><line x1="78.0" y1="136.0" x2="736.0" y2="136.0" stroke="#e2e8f0" stroke-width="1"/><text x="69.0" y="140.0" text-anchor="end" font-size="12" fill="#475569">2^11</text><line x1="78.0" y1="96.0" x2="78.0" y2="496.0" stroke="#f1f5f9" stroke-width="1"/><text x="78.0" y="516.0" text-anchor="middle" font-size="12" fill="#475569">1</text><line x1="155.4" y1="96.0" x2="155.4" y2="496.0" stroke="#f1f5f9" stroke-width="1"/><text x="155.4" y="516.0" text-anchor="middle" font-size="12" fill="#475569">3</text><line x1="232.8" y1="96.0" x2="232.8" y2="496.0" stroke="#f1f5f9" stroke-width="1"/><text x="232.8" y="516.0" text-anchor="middle" font-size="12" fill="#475569">5</text><line x1="310.2" y1="96.0" x2="310.2" y2="496.0" stroke="#f1f5f9" stroke-width="1"/><text x="310.2" y="516.0" text-anchor="middle" font-size="12" fill="#475569">7</text><line x1="387.6" y1="96.0" x2="387.6" y2="496.0" stroke="#f1f5f9" stroke-width="1"/><text x="387.6" y="516.0" text-anchor="middle" font-size="12" fill="#475569">9</text><line x1="465.1" y1="96.0" x2="465.1" y2="496.0" stroke="#f1f5f9" stroke-width="1"/><text x="465.1" y="516.0" text-anchor="middle" font-size="12" fill="#475569">11</text><line x1="542.5" y1="96.0" x2="542.5" y2="496.0" stroke="#f1f5f9" stroke-width="1"/><text x="542.5" y="516.0" text-anchor="middle" font-size="12" fill="#475569">13</text><line x1="619.9" y1="96.0" x2="619.9" y2="496.0" stroke="#f1f5f9" stroke-width="1"/><text x="619.9" y="516.0" text-anchor="middle" font-size="12" fill="#475569">15</text><line x1="697.3" y1="96.0" x2="697.3" y2="496.0" stroke="#f1f5f9" stroke-width="1"/><text x="697.3" y="516.0" text-anchor="middle" font-size="12" fill="#475569">17</text><line x1="78.0" y1="96.0" x2="78.0" y2="496.0" stroke="#334155" stroke-width="1.4"/><line x1="78.0" y1="496.0" x2="736.0" y2="496.0" stroke="#334155" stroke-width="1.4"/><text x="380" y="544" text-anchor="middle" font-size="13" font-weight="600" fill="#0f172a">Tree Depth</text><text transform="translate(20,296) rotate(-90)" text-anchor="middle" font-size="13" font-weight="600" fill="#0f172a">Time (ns)</text><polyline fill="none" stroke="#16a34a" stroke-width="2.2" stroke-linejoin="round" points="78.0,425.8 116.7,402.1 155.4,372.6 194.1,351.9 232.8,334.3 271.5,318.4 310.2,304.1 348.9,291.3 387.6,279.8 426.4,269.8 465.1,260.3 503.8,251.9 542.5,243.8 581.2,236.3 619.9,229.4 658.6,223.0 697.3,215.9 736.0,210.5"/><circle cx="78.0" cy="425.8" r="3.1" fill="#16a34a"/><circle cx="116.7" cy="402.1" r="3.1" fill="#16a34a"/><circle cx="155.4" cy="372.6" r="3.1" fill="#16a34a"/><circle cx="194.1" cy="351.9" r="3.1" fill="#16a34a"/><circle cx="232.8" cy="334.3" r="3.1" fill="#16a34a"/><circle cx="271.5" cy="318.4" r="3.1" fill="#16a34a"/><circle cx="310.2" cy="304.1" r="3.1" fill="#16a34a"/><circle cx="348.9" cy="291.3" r="3.1" fill="#16a34a"/><circle cx="387.6" cy="279.8" r="3.1" fill="#16a34a"/><circle cx="426.4" cy="269.8" r="3.1" fill="#16a34a"/><circle cx="465.1" cy="260.3" r="3.1" fill="#16a34a"/><circle cx="503.8" cy="251.9" r="3.1" fill="#16a34a"/><circle cx="542.5" cy="243.8" r="3.1" fill="#16a34a"/><circle cx="581.2" cy="236.3" r="3.1" fill="#16a34a"/><circle cx="619.9" cy="229.4" r="3.1" fill="#16a34a"/><circle cx="658.6" cy="223.0" r="3.1" fill="#16a34a"/><circle cx="697.3" cy="215.9" r="3.1" fill="#16a34a"/><circle cx="736.0" cy="210.5" r="3.1" fill="#16a34a"/><polyline fill="none" stroke="#f59e0b" stroke-width="2.2" stroke-linejoin="round" points="78.0,432.1 116.7,389.4 155.4,357.7 194.1,330.0 232.8,312.0 271.5,295.2 310.2,279.9 348.9,267.2 387.6,255.1 426.4,240.8 465.1,230.9 503.8,224.4 542.5,215.8 581.2,207.4 619.9,197.0 658.6,191.7 697.3,185.1 736.0,178.4"/><circle cx="78.0" cy="432.1" r="3.1" fill="#f59e0b"/><circle cx="116.7" cy="389.4" r="3.1" fill="#f59e0b"/><circle cx="155.4" cy="357.7" r="3.1" fill="#f59e0b"/><circle cx="194.1" cy="330.0" r="3.1" fill="#f59e0b"/><circle cx="232.8" cy="312.0" r="3.1" fill="#f59e0b"/><circle cx="271.5" cy="295.2" r="3.1" fill="#f59e0b"/><circle cx="310.2" cy="279.9" r="3.1" fill="#f59e0b"/><circle cx="348.9" cy="267.2" r="3.1" fill="#f59e0b"/><circle cx="387.6" cy="255.1" r="3.1" fill="#f59e0b"/><circle cx="426.4" cy="240.8" r="3.1" fill="#f59e0b"/><circle cx="465.1" cy="230.9" r="3.1" fill="#f59e0b"/><circle cx="503.8" cy="224.4" r="3.1" fill="#f59e0b"/><circle cx="542.5" cy="215.8" r="3.1" fill="#f59e0b"/><circle cx="581.2" cy="207.4" r="3.1" fill="#f59e0b"/><circle cx="619.9" cy="197.0" r="3.1" fill="#f59e0b"/><circle cx="658.6" cy="191.7" r="3.1" fill="#f59e0b"/><circle cx="697.3" cy="185.1" r="3.1" fill="#f59e0b"/><circle cx="736.0" cy="178.4" r="3.1" fill="#f59e0b"/><polyline fill="none" stroke="#2563eb" stroke-width="2.2" stroke-linejoin="round" points="78.0,451.6 116.7,400.9 155.4,365.3 194.1,339.4 232.8,318.0 271.5,300.1 310.2,284.6 348.9,270.7 387.6,258.1 426.4,247.4 465.1,237.1 503.8,228.0 542.5,219.1 581.2,210.8 619.9,203.0 658.6,194.7 697.3,190.1 736.0,183.7"/><circle cx="78.0" cy="451.6" r="3.1" fill="#2563eb"/><circle cx="116.7" cy="400.9" r="3.1" fill="#2563eb"/><circle cx="155.4" cy="365.3" r="3.1" fill="#2563eb"/><circle cx="194.1" cy="339.4" r="3.1" fill="#2563eb"/><circle cx="232.8" cy="318.0" r="3.1" fill="#2563eb"/><circle cx="271.5" cy="300.1" r="3.1" fill="#2563eb"/><circle cx="310.2" cy="284.6" r="3.1" fill="#2563eb"/><circle cx="348.9" cy="270.7" r="3.1" fill="#2563eb"/><circle cx="387.6" cy="258.1" r="3.1" fill="#2563eb"/><circle cx="426.4" cy="247.4" r="3.1" fill="#2563eb"/><circle cx="465.1" cy="237.1" r="3.1" fill="#2563eb"/><circle cx="503.8" cy="228.0" r="3.1" fill="#2563eb"/><circle cx="542.5" cy="219.1" r="3.1" fill="#2563eb"/><circle cx="581.2" cy="210.8" r="3.1" fill="#2563eb"/><circle cx="619.9" cy="203.0" r="3.1" fill="#2563eb"/><circle cx="658.6" cy="194.7" r="3.1" fill="#2563eb"/><circle cx="697.3" cy="190.1" r="3.1" fill="#2563eb"/><circle cx="736.0" cy="183.7" r="3.1" fill="#2563eb"/><rect x="92.0" y="110.0" width="300" height="72" rx="5" fill="#ffffff" fill-opacity="0.92" stroke="#cbd5e1"/><line x1="102.0" y1="126.0" x2="126.0" y2="126.0" stroke="#16a34a" stroke-width="2.6"/><circle cx="114.0" cy="126.0" r="3.1" fill="#16a34a"/><text x="134.0" y="130.0" font-size="12.5" fill="#0f172a">cbergoon/merkletree (VerifyProof)</text><line x1="102.0" y1="146.0" x2="126.0" y2="146.0" stroke="#f59e0b" stroke-width="2.6"/><circle cx="114.0" cy="146.0" r="3.1" fill="#f59e0b"/><text x="134.0" y="150.0" font-size="12.5" fill="#0f172a">txaty/go-merkletree</text><line x1="102.0" y1="166.0" x2="126.0" y2="166.0" stroke="#2563eb" stroke-width="2.6"/><circle cx="114.0" cy="166.0" r="3.1" fill="#2563eb"/><text x="134.0" y="170.0" font-size="12.5" fill="#0f172a">wealdtech/go-merkletree</text></svg>